<svg width="393" height="6" viewBox="0 0 393 6" fill="none" xmlns="http://www.w3.org/2000/svg">
<g clip-path="url(#clip0_2019_37499)">
<rect width="393" height="6" fill="#FEFEFE"/>
<path d="M20 0H-0.5L-4 6H16.5359L20 0Z" fill="#F26522"/>
<path d="M39 0H18.5L15 6H35.5359L39 0Z" fill="#FC7B3E"/>
<path d="M58 0H37.5L34 6H54.5359L58 0Z" fill="#F26522"/>
<path d="M77 0H56.5L53 6H73.5359L77 0Z" fill="#FC7B3E"/>
<path d="M96 0H75.5L72 6H92.5359L96 0Z" fill="#F26522"/>
<path d="M115 0H94.5L91 6H111.536L115 0Z" fill="#FC7B3E"/>
<path d="M134 0H113.5L110 6H130.536L134 0Z" fill="#F26522"/>
<path d="M153 0H132.5L129 6H149.536L153 0Z" fill="#FC7B3E"/>
<path d="M172 0H151.5L148 6H168.536L172 0Z" fill="#F26522"/>
<path d="M191 0H170.5L167 6H187.536L191 0Z" fill="#FC7B3E"/>
<path d="M210 0H189.5L186 6H206.536L210 0Z" fill="#F26522"/>
<path d="M229 0H208.5L205 6H225.536L229 0Z" fill="#FC7B3E"/>
<path d="M248 0H227.5L224 6H244.536L248 0Z" fill="#F26522"/>
<path d="M267 0H246.5L243 6H263.536L267 0Z" fill="#FC7B3E"/>
<path d="M286 0H265.5L262 6H282.536L286 0Z" fill="#F26522"/>
<path d="M305 0H284.5L281 6H301.536L305 0Z" fill="#FC7B3E"/>
<path d="M324 0H303.5L300 6H320.536L324 0Z" fill="#F26522"/>
<path d="M343 0H322.5L319 6H339.536L343 0Z" fill="#FC7B3E"/>
</g>
<defs>
<clipPath id="clip0_2019_37499">
<rect width="393" height="6" fill="white"/>
</clipPath>
</defs>
</svg>
