<svg width="393" height="6" viewBox="0 0 393 6" fill="none" xmlns="http://www.w3.org/2000/svg">
<g clip-path="url(#clip0_1963_38421)">
<rect width="393" height="6" fill="#FEFEFE"/>
<path d="M20 0H-0.5L-4 6H16.5359L20 0Z" fill="#F26522"/>
<path d="M39 0H18.5L15 6H35.5359L39 0Z" fill="#FC7B3E"/>
<path d="M58 0H37.5L34 6H54.5359L58 0Z" fill="#F26522"/>
<path d="M77 0H56.5L53 6H73.5359L77 0Z" fill="#FC7B3E"/>
<path d="M96 0H75.5L72 6H92.5359L96 0Z" fill="#F26522"/>
<path d="M115 0H94.5L91 6H111.536L115 0Z" fill="#FC7B3E"/>
<path d="M134 0H113.5L110 6H130.536L134 0Z" fill="#F26522"/>
<path d="M153 0H132.5L129 6H149.536L153 0Z" fill="#FC7B3E"/>
<path d="M172 0H151.5L148 6H168.536L172 0Z" fill="#F26522"/>
</g>
<defs>
<clipPath id="clip0_1963_38421">
<rect width="393" height="6" fill="white"/>
</clipPath>
</defs>
</svg>
